<svg id="Layer_1" data-name="Layer 1" xmlns="http://www.w3.org/2000/svg" viewBox="0 0 32 32"><title>action_addtooutlook_large_0dc6acd331fe4af6bbce1bf61fef4e8f</title><rect x="2" y="3" width="27" height="26" fill="#fff"/><path d="M30,2H25V4a2,2,0,0,1-4,0V2H10V4A2,2,0,0,1,6,4V2H1A1,1,0,0,0,0,3V30a1,1,0,0,0,1,1H30a1,1,0,0,0,1-1V3A1,1,0,0,0,30,2ZM29,29H2V8H29V29Z" fill="#407fb9"/><rect x="22" y="1" width="2" height="4" rx="1" ry="1" fill="#407fb9"/><rect x="7" y="1" width="2" height="4" rx="1" ry="1" fill="#407fb9"/><rect x="4" y="10" width="5" height="5" rx="0.5" ry="0.5" fill="#c1c5c6"/><rect x="10" y="10" width="5" height="5" rx="0.5" ry="0.5" fill="#c1c5c6"/><rect x="16" y="10" width="5" height="5" rx="0.5" ry="0.5" fill="#c1c5c6"/><rect x="22" y="10" width="5" height="5" rx="0.5" ry="0.5" fill="#c1c5c6"/><rect x="4" y="16" width="5" height="5" rx="0.5" ry="0.5" fill="#c1c5c6"/><rect x="10" y="16" width="5" height="5" rx="0.5" ry="0.5" fill="#c1c5c6"/><rect x="22" y="16" width="5" height="5" rx="0.5" ry="0.5" fill="#c1c5c6"/><rect x="4" y="22" width="5" height="5" rx="0.5" ry="0.5" fill="#c1c5c6"/><rect x="10" y="22" width="5" height="5" rx="0.5" ry="0.5" fill="#c1c5c6"/><rect x="16" y="22" width="5" height="5" rx="0.5" ry="0.5" fill="#c1c5c6"/><rect x="22" y="22" width="5" height="5" rx="0.5" ry="0.5" fill="#c1c5c6"/><path d="M20,17v3H17V17h3m2-2H15v7h7V15h0Z" fill="#d65633"/></svg>