<svg id="Layer_1" data-name="Layer 1" xmlns="http://www.w3.org/2000/svg" viewBox="0 0 16 16"><title>action_addtooutlook_small_0dc6acd331fe4af6bbce1bf61fef4e8f</title><rect x="1" y="3" width="13" height="11" fill="#fff"/><path d="M14,1V14H1V1H14m0-1H1A1,1,0,0,0,0,1V14a1,1,0,0,0,1,1H14a1,1,0,0,0,1-1V1a1,1,0,0,0-1-1h0Z" fill="#407fb9"/><rect x="1" y="1" width="13" height="2" fill="#407fb9"/><circle cx="3.5" cy="1.5" r="0.5" fill="#fff"/><circle cx="11.5" cy="1.5" r="0.5" fill="#fff"/><rect x="2" y="5" width="3" height="3" rx="0.5" ry="0.5" fill="#adb1b2"/><rect x="10" y="5" width="3" height="3" rx="0.5" ry="0.5" fill="#adb1b2"/><rect x="2" y="9" width="3" height="3" rx="0.5" ry="0.5" fill="#adb1b2"/><rect x="6" y="5" width="3" height="3" rx="0.5" ry="0.5" fill="#adb1b2"/><rect x="6" y="9" width="3" height="3" rx="0.5" ry="0.5" fill="#adb1b2"/><path d="M12,10v2H10V10h2m1-1H9v4h4V9h0Z" fill="#d65633"/></svg>